<?xml version="1.0" standalone="no"?>
<!DOCTYPE svg PUBLIC "-//W3C//DTD SVG 20010904//EN"
 "http://www.w3.org/TR/2001/REC-SVG-20010904/DTD/svg10.dtd">
<svg version="1.0" xmlns="http://www.w3.org/2000/svg"
 width="800.000000pt" height="443.000000pt" viewBox="0 0 800.000000 443.000000"
 preserveAspectRatio="xMidYMid meet">

<g transform="translate(0.000000,443.000000) scale(0.100000,-0.100000)"
fill="#000000" stroke="none">
<path d="M798 4423 c7 -3 16 -2 19 1 4 3 -2 6 -13 5 -11 0 -14 -3 -6 -6z"/>
<path d="M850 4426 c0 -2 7 -6 15 -10 8 -3 15 -1 15 4 0 6 -7 10 -15 10 -8 0
-15 -2 -15 -4z"/>
<path d="M3940 4426 c0 -2 7 -6 15 -10 8 -3 15 -1 15 4 0 6 -7 10 -15 10 -8 0
-15 -2 -15 -4z"/>
<path d="M4678 4423 c6 -2 18 -2 25 0 6 3 1 5 -13 5 -14 0 -19 -2 -12 -5z"/>
<path d="M4762 4390 c0 -14 2 -19 5 -12 2 6 2 18 0 25 -3 6 -5 1 -5 -13z"/>
<path d="M3738 4393 c7 -3 16 -2 19 1 4 3 -2 6 -13 5 -11 0 -14 -3 -6 -6z"/>
<path d="M7340 4384 c0 -8 5 -12 10 -9 6 4 8 11 5 16 -9 14 -15 11 -15 -7z"/>
<path d="M4961 4374 c0 -11 3 -14 6 -6 3 7 2 16 -1 19 -3 4 -6 -2 -5 -13z"/>
<path d="M5041 4374 c0 -11 3 -14 6 -6 3 7 2 16 -1 19 -3 4 -6 -2 -5 -13z"/>
<path d="M7630 4377 c0 -9 4 -18 9 -21 5 -4 8 1 7 9 -3 21 -16 31 -16 12z"/>
<path d="M7680 4374 c0 -8 5 -12 10 -9 6 3 10 10 10 16 0 5 -4 9 -10 9 -5 0
-10 -7 -10 -16z"/>
<path d="M3991 4354 c0 -11 3 -14 6 -6 3 7 2 16 -1 19 -3 4 -6 -2 -5 -13z"/>
<path d="M2603 4335 c5 -37 16 -41 15 -6 -1 17 -5 31 -10 31 -5 0 -7 -11 -5
-25z"/>
<path d="M2710 4333 c0 -22 2 -25 10 -13 13 20 13 40 0 40 -5 0 -10 -12 -10
-27z"/>
<path d="M2761 4348 c0 -7 4 -22 9 -33 7 -17 9 -15 9 13 1 17 -3 32 -9 32 -5
0 -10 -6 -9 -12z"/>
<path d="M2569 4332 c6 -10 7 -22 4 -26 -3 -3 -1 -6 6 -6 16 0 10 42 -7 48
-11 3 -12 0 -3 -16z"/>
<path d="M2630 4331 c0 -11 4 -22 9 -25 4 -3 6 6 3 19 -5 30 -12 33 -12 6z"/>
<path d="M2806 4342 c6 -4 14 -14 17 -22 4 -10 6 -8 6 8 1 15 -5 22 -16 22
-11 0 -14 -3 -7 -8z"/>
<path d="M2900 4340 c0 -5 5 -10 11 -10 5 0 7 5 4 10 -3 6 -8 10 -11 10 -2 0
-4 -4 -4 -10z"/>
<path d="M2881 4324 c0 -11 3 -14 6 -6 3 7 2 16 -1 19 -3 4 -6 -2 -5 -13z"/>
<path d="M6270 4295 c0 -19 3 -35 8 -35 4 0 7 16 7 35 0 19 -3 35 -7 35 -5 0
-8 -16 -8 -35z"/>
<path d="M7000 4303 c0 -18 2 -33 4 -33 9 0 13 39 5 51 -6 10 -9 4 -9 -18z"/>
<path d="M6407 4313 c-3 -5 -1 -17 4 -28 7 -17 8 -17 8 8 1 27 -4 34 -12 20z"/>
<path d="M7034 4309 c-3 -6 -2 -15 3 -20 5 -5 9 -1 9 11 0 23 -2 24 -12 9z"/>
<path d="M7141 4293 c2 -24 2 -25 6 -5 5 26 20 29 26 5 4 -14 5 -12 6 5 1 16
-5 22 -19 22 -15 0 -20 -6 -19 -27z"/>
<path d="M7220 4300 c0 -11 2 -20 4 -20 2 0 6 9 9 20 3 11 1 20 -4 20 -5 0 -9
-9 -9 -20z"/>
<path d="M7270 4313 c5 -2 8 -8 6 -12 -3 -4 0 -13 5 -21 8 -12 9 -9 7 9 -2 14
-9 26 -16 27 -7 1 -8 0 -2 -3z"/>
<path d="M6350 4303 c5 -2 8 -9 5 -13 -3 -5 0 -12 6 -15 7 -5 10 -1 7 10 -1
10 -9 20 -16 21 -7 1 -8 0 -2 -3z"/>
<path d="M7116 4283 c-6 -14 -5 -15 5 -6 7 7 10 15 7 18 -3 3 -9 -2 -12 -12z"/>
<path d="M7370 4281 c0 -25 6 -27 13 -6 4 8 2 17 -3 20 -6 4 -10 -3 -10 -14z"/>
<path d="M7660 4269 c0 -5 5 -7 10 -4 6 3 10 8 10 11 0 2 -4 4 -10 4 -5 0 -10
-5 -10 -11z"/>
<path d="M5492 4203 l1 -38 4 33 c3 25 8 32 19 28 9 -3 12 -1 9 4 -3 6 -13 10
-21 10 -10 0 -14 -11 -12 -37z"/>
<path d="M2997 4223 c-10 -9 -9 -41 1 -47 5 -3 8 8 8 25 0 32 0 32 -9 22z"/>
<path d="M3026 4203 c7 -37 14 -42 14 -10 0 14 -4 28 -9 32 -6 3 -8 -6 -5 -22z"/>
<path d="M3212 4200 c0 -19 2 -27 5 -17 2 9 2 25 0 35 -3 9 -5 1 -5 -18z"/>
<path d="M3260 4217 c0 -9 4 -18 9 -21 5 -4 8 1 7 9 -3 21 -16 31 -16 12z"/>
<path d="M5601 4203 c0 -25 1 -26 9 -8 12 27 12 35 0 35 -5 0 -10 -12 -9 -27z"/>
<path d="M5762 4200 c0 -14 2 -19 5 -12 2 6 2 18 0 25 -3 6 -5 1 -5 -13z"/>
<path d="M5792 4200 c0 -14 2 -19 5 -12 2 6 2 18 0 25 -3 6 -5 1 -5 -13z"/>
<path d="M5817 4199 c4 -13 8 -18 11 -10 2 7 -1 18 -6 23 -8 8 -9 4 -5 -13z"/>
<path d="M3082 4190 c0 -14 2 -19 5 -12 2 6 2 18 0 25 -3 6 -5 1 -5 -13z"/>
<path d="M3162 4190 c0 -14 2 -19 5 -12 2 6 2 18 0 25 -3 6 -5 1 -5 -13z"/>
<path d="M3322 4190 c0 -14 2 -19 5 -12 2 6 2 18 0 25 -3 6 -5 1 -5 -13z"/>
<path d="M3340 4190 c0 -11 2 -20 4 -20 2 0 6 9 9 20 3 11 1 20 -4 20 -5 0 -9
-9 -9 -20z"/>
<path d="M3382 4190 c0 -14 2 -19 5 -12 2 6 2 18 0 25 -3 6 -5 1 -5 -13z"/>
<path d="M5631 4194 c0 -11 3 -14 6 -6 3 7 2 16 -1 19 -3 4 -6 -2 -5 -13z"/>
<path d="M5032 4180 c0 -14 2 -19 5 -12 2 6 2 18 0 25 -3 6 -5 1 -5 -13z"/>
<path d="M5140 4185 c-7 -9 -10 -18 -7 -22 4 -3 10 2 13 11 5 14 9 15 15 4 6
-9 9 -9 9 -1 0 19 -17 24 -30 8z"/>
<path d="M5208 4175 c2 -14 6 -25 8 -25 2 0 4 11 4 25 0 14 -4 25 -9 25 -4 0
-6 -11 -3 -25z"/>
<path d="M5308 4173 c5 -21 7 -23 10 -9 2 10 0 22 -6 28 -6 6 -7 0 -4 -19z"/>
<path d="M3235 4180 c3 -5 8 -10 11 -10 2 0 4 5 4 10 0 6 -5 10 -11 10 -5 0
-7 -4 -4 -10z"/>
<path d="M5062 4170 c0 -14 2 -19 5 -12 2 6 2 18 0 25 -3 6 -5 1 -5 -13z"/>
<path d="M5705 4180 c-3 -5 -1 -10 4 -10 6 0 11 5 11 10 0 6 -2 10 -4 10 -3 0
-8 -4 -11 -10z"/>
<path d="M6687 4103 c-11 -10 -8 -103 3 -103 6 0 10 25 10 55 0 56 -1 60 -13
48z"/>
<path d="M6780 4091 c0 -13 -8 -21 -22 -23 -18 -2 -23 -10 -23 -33 0 -27 4
-30 33 -33 l32 -3 0 50 c0 27 -4 53 -10 56 -5 3 -10 -3 -10 -14z m-4 -67 c-5
-13 -10 -14 -18 -6 -6 6 -8 18 -4 28 5 13 10 14 18 6 6 -6 8 -18 4 -28z"/>
<path d="M6451 4048 c0 -29 3 -46 6 -38 14 43 16 45 22 21 9 -35 25 -36 38 -4
l11 28 1 -27 c2 -50 21 -29 21 22 0 38 -4 50 -15 50 -8 0 -15 -4 -15 -9 0 -5
-5 -22 -11 -38 l-11 -28 -12 34 c-20 56 -36 51 -35 -11z"/>
<path d="M1590 4055 c0 -27 4 -35 18 -35 13 0 14 2 3 9 -8 5 -12 19 -9 35 3
14 1 26 -3 26 -5 0 -9 -16 -9 -35z"/>
<path d="M1702 4060 c2 -25 8 -35 21 -36 12 -1 13 -1 2 3 -21 6 -19 33 3 34
13 0 14 2 2 6 -8 3 -19 11 -23 17 -4 6 -6 -5 -5 -24z"/>
<path d="M1632 4050 c0 -14 2 -19 5 -12 2 6 2 18 0 25 -3 6 -5 1 -5 -13z"/>
<path d="M1663 4063 c-7 -2 -13 -12 -13 -21 1 -16 2 -16 14 0 7 10 17 14 21
10 5 -4 5 -1 1 6 -4 6 -8 12 -9 11 -1 0 -8 -3 -14 -6z"/>
<path d="M1760 4050 c0 -11 2 -20 4 -20 2 0 6 9 9 20 3 11 1 20 -4 20 -5 0 -9
-9 -9 -20z"/>
<path d="M1803 4063 c-7 -2 -13 -12 -13 -21 1 -15 2 -15 11 1 6 9 15 14 21 11
7 -4 8 -2 4 4 -4 7 -8 12 -9 11 -1 0 -8 -3 -14 -6z"/>
<path d="M1843 4055 c-3 -9 -3 -19 1 -22 3 -4 6 1 6 10 0 8 6 18 13 20 9 4 9
6 -1 6 -7 1 -15 -6 -19 -14z"/>
<path d="M1941 4048 c1 -17 2 -19 6 -5 2 9 8 17 13 17 5 0 11 -8 13 -17 4 -14
5 -12 6 5 1 16 -5 22 -19 22 -14 0 -20 -6 -19 -22z"/>
<path d="M6586 4052 c-11 -32 4 -53 33 -50 22 2 26 8 26 33 0 25 -4 31 -27 33
-19 2 -28 -2 -32 -16z m40 -28 c-5 -13 -10 -14 -18 -6 -6 6 -8 18 -4 28 5 13
10 14 18 6 6 -6 8 -18 4 -28z"/>
<path d="M6834 4056 c-11 -28 1 -51 27 -54 29 -3 43 23 27 52 -11 20 -47 21
-54 2z m41 -21 c0 -10 -6 -20 -12 -22 -8 -3 -13 5 -13 22 0 17 5 25 13 23 6
-3 12 -13 12 -23z"/>
<path d="M6925 4053 c4 -10 10 -26 12 -35 3 -10 9 -18 14 -18 13 0 31 39 26
58 -3 14 -6 12 -14 -8 l-10 -25 -7 23 c-4 12 -12 22 -18 22 -6 0 -7 -7 -3 -17z"/>
<path d="M7015 4060 c-5 -9 -1 -10 14 -5 11 3 21 2 21 -3 0 -5 -9 -12 -20 -15
-33 -9 -25 -37 11 -37 28 0 30 2 27 33 -2 24 -8 33 -25 35 -11 2 -24 -2 -28
-8z m35 -40 c0 -5 -4 -10 -10 -10 -5 0 -10 5 -10 10 0 6 5 10 10 10 6 0 10 -4
10 -10z"/>
<path d="M1890 4046 c0 -8 4 -17 9 -20 5 -4 7 3 4 14 -6 23 -13 26 -13 6z"/>
<path d="M7 4044 c-4 -4 -7 -18 -7 -31 0 -16 6 -23 18 -22 10 0 12 3 5 6 -16
6 -17 43 -2 43 5 0 7 -4 4 -10 -3 -5 -1 -10 5 -10 14 0 8 22 -6 27 -6 2 -13 0
-17 -3z"/>
<path d="M2090 3985 c-8 -9 -8 -15 -2 -15 12 0 26 19 19 26 -2 2 -10 -2 -17
-11z"/>
<path d="M6000 3994 c0 -13 18 -39 24 -34 2 3 -2 14 -10 24 -8 11 -14 16 -14
10z"/>
<path d="M6050 3920 c0 -5 4 -10 9 -10 6 0 13 5 16 10 3 6 -1 10 -9 10 -9 0
-16 -4 -16 -10z"/>
<path d="M7260 3900 c0 -5 5 -10 10 -10 6 0 10 5 10 10 0 6 -4 10 -10 10 -5 0
-10 -4 -10 -10z"/>
<path d="M1320 3880 c0 -5 5 -10 10 -10 6 0 10 5 10 10 0 6 -4 10 -10 10 -5 0
-10 -4 -10 -10z"/>
<path d="M4362 3835 c0 -16 2 -22 5 -12 2 9 2 23 0 30 -3 6 -5 -1 -5 -18z"/>
<path d="M4721 3834 c0 -11 3 -14 6 -6 3 7 2 16 -1 19 -3 4 -6 -2 -5 -13z"/>
<path d="M6116 3765 c-3 -9 1 -18 10 -22 21 -8 25 -1 9 20 -11 15 -13 16 -19
2z"/>
<path d="M2730 3699 c0 -5 5 -7 10 -4 6 3 10 8 10 11 0 2 -4 4 -10 4 -5 0 -10
-5 -10 -11z"/>
<path d="M6043 3665 c0 -22 2 -30 4 -17 2 12 2 30 0 40 -3 9 -5 -1 -4 -23z"/>
<path d="M2792 3670 c0 -14 2 -19 5 -12 2 6 2 18 0 25 -3 6 -5 1 -5 -13z"/>
<path d="M2866 3682 c-2 -4 -1 -14 5 -22 7 -12 9 -10 9 8 0 23 -5 28 -14 14z"/>
<path d="M2892 3670 c0 -14 2 -19 5 -12 2 6 2 18 0 25 -3 6 -5 1 -5 -13z"/>
<path d="M2922 3670 c0 -14 2 -19 5 -12 2 6 2 18 0 25 -3 6 -5 1 -5 -13z"/>
<path d="M6082 3673 c9 -2 19 -14 21 -26 4 -18 5 -17 6 6 1 22 -3 27 -21 26
-16 -1 -18 -3 -6 -6z"/>
<path d="M6130 3663 c0 -10 4 -14 8 -8 4 6 11 13 16 18 5 4 2 7 -7 7 -10 0
-17 -8 -17 -17z"/>
<path d="M6192 3655 c0 -16 2 -22 5 -12 2 9 2 23 0 30 -3 6 -5 -1 -5 -18z"/>
<path d="M6156 3646 c6 -16 4 -18 -12 -12 -15 6 -17 5 -6 -5 9 -10 15 -10 24
-1 9 9 9 15 -1 25 -10 10 -11 8 -5 -7z"/>
<path d="M3720 3622 c0 -18 4 -32 9 -32 4 0 7 12 5 26 -4 38 -14 42 -14 6z"/>
<path d="M3857 3643 c-3 -5 -1 -17 4 -28 7 -17 8 -17 8 8 1 27 -4 34 -12 20z"/>
<path d="M3952 3625 c0 -16 2 -22 5 -12 2 9 2 23 0 30 -3 6 -5 -1 -5 -18z"/>
<path d="M3892 3620 c0 -14 2 -19 5 -12 2 6 2 18 0 25 -3 6 -5 1 -5 -13z"/>
<path d="M4000 3620 c0 -19 3 -21 12 -12 9 9 9 15 0 24 -9 9 -12 7 -12 -12z"/>
<path d="M3754 3610 c0 -13 4 -16 10 -10 7 7 7 13 0 20 -6 6 -10 3 -10 -10z"/>
<path d="M6093 3584 c-3 -8 1 -23 10 -31 13 -13 19 -14 31 -3 9 7 16 17 16 23
0 6 -6 3 -13 -8 -8 -10 -19 -15 -25 -11 -20 12 -13 34 11 39 l22 4 -23 2 c-12
0 -25 -6 -29 -15z"/>
<path d="M1852 3560 c0 -14 2 -19 5 -12 2 6 2 18 0 25 -3 6 -5 1 -5 -13z"/>
<path d="M1916 3563 c-4 -9 -2 -21 4 -27 7 -7 10 -2 10 17 0 31 -5 34 -14 10z"/>
<path d="M2030 3571 c0 -6 4 -13 10 -16 6 -3 7 1 4 9 -7 18 -14 21 -14 7z"/>
<path d="M1982 3550 c0 -14 2 -19 5 -12 2 6 2 18 0 25 -3 6 -5 1 -5 -13z"/>
<path d="M2062 3550 c0 -14 2 -19 5 -12 2 6 2 18 0 25 -3 6 -5 1 -5 -13z"/>
<path d="M2130 3551 c0 -12 5 -21 10 -21 6 0 10 6 10 14 0 8 -4 18 -10 21 -5
3 -10 -3 -10 -14z"/>
<path d="M715 3540 c-3 -5 -1 -10 4 -10 6 0 11 5 11 10 0 6 -2 10 -4 10 -3 0
-8 -4 -11 -10z"/>
<path d="M6830 3506 c0 -22 6 -36 16 -40 14 -5 15 -4 4 9 -7 8 -10 26 -8 40 3
14 1 25 -3 25 -5 0 -9 -15 -9 -34z"/>
<path d="M6865 3530 c3 -5 8 -10 11 -10 2 0 4 5 4 10 0 6 -5 10 -11 10 -5 0
-7 -4 -4 -10z"/>
<path d="M6902 3505 c0 -22 3 -30 5 -17 4 22 23 32 23 12 0 -5 4 -10 10 -10 5
0 7 7 4 15 -4 8 -12 15 -19 15 -7 0 -16 6 -18 13 -3 6 -5 -6 -5 -28z"/>
<path d="M6960 3496 c0 -14 5 -26 10 -26 6 0 10 9 10 19 0 11 -4 23 -10 26 -6
4 -10 -5 -10 -19z"/>
<path d="M6995 3510 c-3 -6 1 -13 9 -16 9 -3 16 -11 16 -16 0 -6 -7 -7 -16 -4
-15 6 -15 4 -3 -10 12 -14 14 -14 26 2 11 16 10 20 -9 30 -21 11 -21 12 -2 17
15 4 15 5 2 6 -9 0 -20 -4 -23 -9z"/>
<path d="M7052 3495 c0 -16 2 -22 5 -12 2 9 2 23 0 30 -3 6 -5 -1 -5 -18z"/>
<path d="M7081 3493 c2 -23 2 -24 6 -5 2 12 9 22 14 22 5 0 14 -10 19 -22 10
-23 10 -23 7 2 -1 17 -9 26 -24 28 -20 3 -23 -1 -22 -25z"/>
<path d="M7161 3514 c11 -3 15 -12 12 -25 -3 -11 0 -19 7 -19 20 0 7 45 -15
47 -13 1 -15 0 -4 -3z"/>
<path d="M7200 3504 c0 -11 5 -25 11 -31 17 -17 39 -4 38 21 0 19 -1 19 -11
-4 -10 -23 -11 -23 -15 -5 -7 29 -23 43 -23 19z"/>
<path d="M17 3503 c-15 -15 -7 -55 13 -60 25 -7 26 -20 3 -26 -15 -4 -14 -5 3
-6 30 -2 44 18 44 61 0 35 -2 38 -28 38 -16 0 -32 -3 -35 -7z m38 -26 c0 -26
-20 -25 -23 2 -3 16 1 22 10 19 7 -3 13 -12 13 -21z"/>
<path d="M111 3483 c5 -15 7 -38 4 -51 -4 -17 -2 -23 7 -20 15 5 52 98 39 98
-5 0 -12 -8 -16 -17 -6 -17 -7 -17 -16 0 -16 28 -30 20 -18 -10z"/>
<path d="M200 3500 c0 -5 7 -7 15 -4 8 4 15 2 15 -4 0 -5 -9 -12 -21 -15 -29
-8 -19 -31 14 -35 25 -3 27 0 27 32 0 32 -3 36 -25 36 -14 0 -25 -4 -25 -10z
m30 -40 c0 -5 -2 -10 -4 -10 -3 0 -8 5 -11 10 -3 6 -1 10 4 10 6 0 11 -4 11
-10z"/>
<path d="M290 3474 c0 -22 4 -33 11 -29 6 4 8 10 5 13 -4 3 1 16 9 29 14 21
14 23 -5 23 -16 0 -20 -7 -20 -36z"/>
<path d="M354 3496 c-10 -25 0 -51 20 -54 27 -6 48 25 35 49 -12 22 -47 25
-55 5z m40 -5 c8 -12 -3 -41 -15 -41 -5 0 -9 11 -9 25 0 25 14 34 24 16z"/>
<path d="M440 3481 c0 -17 5 -33 10 -36 6 -4 10 5 10 19 0 14 5 26 10 26 6 0
10 5 10 10 0 6 -9 10 -20 10 -15 0 -20 -7 -20 -29z"/>
<path d="M510 3495 c0 -9 7 -18 15 -21 8 -4 15 -10 15 -15 0 -4 -7 -6 -15 -3
-8 4 -15 1 -15 -6 0 -16 52 -9 58 8 2 7 -5 16 -17 19 -12 3 -21 10 -21 15 0 6
7 8 15 4 8 -3 15 -1 15 4 0 6 -11 10 -25 10 -16 0 -25 -6 -25 -15z"/>
<path d="M610 3500 c12 -7 12 -12 2 -22 -21 -21 -14 -38 16 -38 21 0 24 2 12
10 -12 8 -13 13 -2 30 17 28 16 30 -15 30 -22 0 -25 -2 -13 -10z"/>
<path d="M690 3500 c0 -5 7 -7 15 -4 8 4 15 2 15 -4 0 -5 -9 -12 -21 -15 -31
-8 -18 -31 19 -35 26 -3 32 0 32 17 0 35 -12 51 -36 51 -13 0 -24 -4 -24 -10z
m40 -34 c0 -11 -19 -15 -25 -6 -3 5 1 10 9 10 9 0 16 -2 16 -4z"/>
<path d="M780 3480 c0 -23 6 -33 23 -39 l22 -9 -25 -11 c-25 -11 -25 -11 5 -8
28 2 30 5 33 50 3 46 3 47 -27 47 -28 0 -31 -3 -31 -30z m40 -5 c0 -25 -14
-34 -24 -16 -8 12 3 41 15 41 5 0 9 -11 9 -25z"/>
<path d="M7140 3480 c0 -5 5 -10 10 -10 6 0 10 5 10 10 0 6 -4 10 -10 10 -5 0
-10 -4 -10 -10z"/>
<path d="M6375 3460 c3 -5 8 -10 11 -10 2 0 4 5 4 10 0 6 -5 10 -11 10 -5 0
-7 -4 -4 -10z"/>
<path d="M4960 3410 c0 -26 2 -29 14 -18 8 7 10 15 5 16 -5 2 -9 8 -9 13 0 12
27 11 33 -1 3 -6 4 -5 3 2 -1 7 -12 14 -24 16 -19 3 -22 -1 -22 -28z"/>
<path d="M5241 3410 c0 -28 2 -31 9 -15 7 18 8 19 15 3 12 -29 25 -20 24 15
-1 26 -3 28 -6 8 l-5 -25 -19 25 -19 24 1 -35z"/>
<path d="M7024 3425 c-9 -22 22 -53 37 -38 15 15 7 47 -14 51 -9 2 -20 -4 -23
-13z m34 -12 c-4 -22 -22 -20 -26 1 -2 10 3 16 13 16 10 0 15 -7 13 -17z"/>
<path d="M5102 3405 c0 -16 2 -22 5 -12 2 9 2 23 0 30 -3 6 -5 -1 -5 -18z"/>
<path d="M5490 3420 c0 -5 5 -10 10 -10 6 0 10 5 10 10 0 6 -4 10 -10 10 -5 0
-10 -4 -10 -10z"/>
<path d="M5067 3400 c3 -11 7 -20 9 -20 2 0 4 9 4 20 0 11 -4 20 -9 20 -5 0
-7 -9 -4 -20z"/>
<path d="M5131 3404 c0 -11 3 -14 6 -6 3 7 2 16 -1 19 -3 4 -6 -2 -5 -13z"/>
<path d="M5192 3400 c0 -14 2 -19 5 -12 2 6 2 18 0 25 -3 6 -5 1 -5 -13z"/>
<path d="M5306 3411 c-4 -7 -5 -15 -2 -18 9 -9 19 4 14 18 -4 11 -6 11 -12 0z"/>
<path d="M5382 3400 c0 -14 2 -19 5 -12 2 6 2 18 0 25 -3 6 -5 1 -5 -13z"/>
<path d="M5412 3400 c0 -14 2 -19 5 -12 2 6 2 18 0 25 -3 6 -5 1 -5 -13z"/>
<path d="M5435 3410 c3 -5 8 -10 11 -10 2 0 4 5 4 10 0 6 -5 10 -11 10 -5 0
-7 -4 -4 -10z"/>
<path d="M5471 3394 c0 -11 3 -14 6 -6 3 7 2 16 -1 19 -3 4 -6 -2 -5 -13z"/>
<path d="M0 3330 c0 -27 5 -50 10 -50 6 0 10 9 10 20 0 30 47 28 53 -2 2 -13
4 2 4 32 0 30 -2 45 -4 33 -6 -31 -53 -33 -53 -3 0 11 -4 20 -10 20 -5 0 -10
-22 -10 -50z"/>
<path d="M122 3318 c2 -28 8 -34 31 -36 25 -3 27 -1 26 35 l-1 38 -9 -33 c-11
-36 -29 -34 -29 4 0 13 -5 24 -11 24 -6 0 -9 -14 -7 -32z"/>
<path d="M221 3313 c1 -36 2 -36 8 -9 9 41 31 46 31 7 0 -17 5 -31 10 -31 6 0
10 16 10 35 0 32 -2 35 -30 35 -28 0 -30 -2 -29 -37z"/>
<path d="M317 3343 c-16 -15 -6 -55 14 -60 21 -6 21 -7 4 -20 -18 -12 -17 -13
7 -13 27 0 38 20 38 73 0 23 -4 27 -28 27 -16 0 -32 -3 -35 -7z m36 -9 c8 -8
-3 -34 -14 -34 -5 0 -9 9 -9 20 0 19 11 26 23 14z"/>
<path d="M410 3342 c0 -6 9 -8 20 -5 29 8 25 -6 -6 -17 -34 -13 -26 -34 15
-38 31 -3 32 -2 29 30 -2 28 -7 34 -30 36 -16 2 -28 -1 -28 -6z m40 -36 c0
-11 -19 -15 -25 -6 -3 5 1 10 9 10 9 0 16 -2 16 -4z"/>
<path d="M500 3315 c0 -19 5 -35 10 -35 6 0 10 10 10 23 0 13 5 28 12 35 9 9
7 12 -10 12 -18 0 -22 -6 -22 -35z"/>
<path d="M572 3320 c5 -17 8 -40 5 -51 -10 -39 16 -13 34 34 18 44 11 66 -9
31 -8 -15 -10 -15 -15 0 -12 31 -26 17 -15 -14z"/>
<path d="M7492 3315 c0 -16 2 -22 5 -12 2 9 2 23 0 30 -3 6 -5 -1 -5 -18z"/>
<path d="M7548 3315 c2 -14 6 -25 8 -25 2 0 4 11 4 25 0 14 -4 25 -9 25 -4 0
-6 -11 -3 -25z"/>
<path d="M7586 3332 c-3 -5 1 -9 9 -9 8 0 15 4 15 9 0 4 -4 8 -9 8 -6 0 -12
-4 -15 -8z"/>
<path d="M7620 3319 c0 -5 5 -7 10 -4 6 3 10 8 10 11 0 2 -4 4 -10 4 -5 0 -10
-5 -10 -11z"/>
<path d="M7654 3311 c0 -14 4 -17 12 -10 8 7 14 6 17 -3 4 -9 6 -8 6 3 1 13
-17 29 -33 29 -1 0 -2 -9 -2 -19z"/>
<path d="M7625 3290 c3 -5 8 -10 11 -10 2 0 4 5 4 10 0 6 -5 10 -11 10 -5 0
-7 -4 -4 -10z"/>
<path d="M2912 3281 c-8 -5 -12 -21 -10 -37 2 -21 9 -30 26 -32 12 -2 22 1 22
6 0 6 -9 8 -21 5 -18 -5 -20 -2 -17 23 2 20 8 29 20 28 10 -1 15 2 12 7 -6 11
-15 11 -32 0z"/>
<path d="M2973 3250 c0 -25 2 -35 4 -22 2 12 2 32 0 45 -2 12 -4 2 -4 -23z"/>
<path d="M3151 3250 c1 -34 3 -39 8 -20 l7 24 16 -22 c15 -22 16 -22 21 -3 3
12 0 18 -7 15 -6 -2 -19 8 -28 23 l-17 28 0 -45z"/>
<path d="M5490 3260 c0 -5 5 -10 11 -10 5 0 7 5 4 10 -3 6 -8 10 -11 10 -2 0
-4 -4 -4 -10z"/>
<path d="M5742 3250 c0 -14 2 -19 5 -12 2 6 2 18 0 25 -3 6 -5 1 -5 -13z"/>
<path d="M3004 3235 c1 -13 9 -21 24 -23 19 -3 22 1 21 25 -2 23 -2 24 -6 6
-5 -27 -30 -31 -36 -5 -3 13 -4 12 -3 -3z"/>
<path d="M3071 3243 c0 -12 -4 -30 -7 -40 -5 -14 -4 -15 5 -7 7 6 11 24 8 40
-3 21 -4 23 -6 7z"/>
<path d="M3250 3241 c0 -12 -5 -21 -11 -21 -5 0 -7 5 -3 12 4 7 3 8 -4 4 -20
-12 -13 -26 13 -26 18 0 25 5 25 19 0 11 -4 23 -10 26 -5 3 -10 -3 -10 -14z"/>
<path d="M3281 3223 c0 -21 3 -32 6 -25 2 6 13 12 24 12 14 0 19 7 19 25 0 14
-4 25 -9 25 -5 0 -7 -9 -4 -20 4 -14 0 -20 -12 -20 -12 0 -16 6 -12 20 3 11 1
20 -4 20 -5 0 -9 -17 -8 -37z"/>
<path d="M3348 3248 c-8 -21 2 -38 23 -38 14 0 19 7 18 28 -2 24 -2 24 -6 4
-3 -13 -10 -21 -16 -19 -7 2 -11 11 -9 21 3 19 -4 22 -10 4z"/>
<path d="M3412 3238 c2 -14 11 -24 23 -25 17 -2 17 -1 2 3 -13 4 -17 12 -14
25 3 10 1 19 -5 19 -5 0 -8 -10 -6 -22z"/>
<path d="M3499 3248 c-1 -7 -1 -16 0 -20 2 -13 -17 -9 -22 5 -3 7 -6 5 -6 -5
-1 -12 6 -18 19 -18 15 0 20 7 20 25 0 25 -9 35 -11 13z"/>
<path d="M5671 3244 c0 -11 3 -14 6 -6 3 7 2 16 -1 19 -3 4 -6 -2 -5 -13z"/>
<path d="M5721 3244 c0 -11 3 -14 6 -6 3 7 2 16 -1 19 -3 4 -6 -2 -5 -13z"/>
<path d="M3190 3175 c-15 -18 -6 -45 14 -45 20 0 29 16 21 40 -8 24 -18 25
-35 5z m30 -21 c0 -8 -7 -14 -15 -14 -15 0 -21 21 -9 33 10 9 24 -2 24 -19z"/>
<path d="M7340 3136 c0 -20 4 -36 8 -36 5 0 7 14 4 30 -5 32 13 42 22 13 4
-14 4 -14 3 2 -1 11 -10 21 -20 23 -14 3 -17 -4 -17 -32z"/>
<path d="M7531 3154 c0 -11 3 -14 6 -6 3 7 2 16 -1 19 -3 4 -6 -2 -5 -13z"/>
<path d="M7396 3135 c-3 -8 -1 -15 4 -15 6 0 10 7 10 15 0 8 -2 15 -4 15 -2 0
-6 -7 -10 -15z"/>
<path d="M7452 3130 c0 -14 2 -19 5 -12 2 6 2 18 0 25 -3 6 -5 1 -5 -13z"/>
<path d="M7482 3130 c0 -14 2 -19 5 -12 2 6 2 18 0 25 -3 6 -5 1 -5 -13z"/>
<path d="M1582 3110 c0 -19 2 -27 5 -17 2 9 2 25 0 35 -3 9 -5 1 -5 -18z"/>
<path d="M7550 3130 c0 -5 5 -10 10 -10 6 0 10 5 10 10 0 6 -4 10 -10 10 -5 0
-10 -4 -10 -10z"/>
<path d="M6252 3100 c0 -19 2 -27 5 -17 2 9 2 25 0 35 -3 9 -5 1 -5 -18z"/>
<path d="M1505 3099 c-4 -6 -5 -12 -2 -15 2 -3 7 2 10 11 7 17 1 20 -8 4z"/>
<path d="M1631 3094 c0 -11 3 -14 6 -6 3 7 2 16 -1 19 -3 4 -6 -2 -5 -13z"/>
<path d="M6174 3095 c3 -21 16 -31 16 -12 0 9 -4 18 -9 21 -5 4 -8 -1 -7 -9z"/>
<path d="M5500 3043 c0 -18 4 -33 10 -33 5 0 7 7 4 15 -4 10 0 15 11 15 11 0
15 -5 11 -15 -3 -8 -1 -15 4 -15 17 0 11 30 -7 37 -10 4 -21 11 -25 17 -4 6
-8 -4 -8 -21z"/>
<path d="M5585 3039 c6 -30 15 -37 15 -11 0 11 -4 23 -9 27 -6 3 -8 -4 -6 -16z"/>
<path d="M3258 3020 c2 -16 5 -30 7 -30 2 0 5 14 7 30 3 19 0 30 -7 30 -7 0
-10 -11 -7 -30z"/>
<path d="M5692 3030 c0 -14 2 -19 5 -12 2 6 2 18 0 25 -3 6 -5 1 -5 -13z"/>
<path d="M5747 3031 c-4 -17 -3 -21 5 -13 5 5 8 16 6 23 -3 8 -7 3 -11 -10z"/>
<path d="M5610 3031 c0 -6 4 -13 10 -16 6 -3 7 1 4 9 -7 18 -14 21 -14 7z"/>
<path d="M3352 3010 c0 -14 2 -19 5 -12 2 6 2 18 0 25 -3 6 -5 1 -5 -13z"/>
<path d="M3462 3010 c0 -14 2 -19 5 -12 2 6 2 18 0 25 -3 6 -5 1 -5 -13z"/>
<path d="M3670 3005 c0 -14 2 -25 4 -25 2 0 6 11 8 25 3 14 1 25 -3 25 -5 0
-9 -11 -9 -25z"/>
<path d="M3932 3005 c0 -16 2 -22 5 -12 2 9 2 23 0 30 -3 6 -5 -1 -5 -18z"/>
<path d="M3977 3017 c-3 -8 -1 -20 4 -28 6 -10 9 -7 9 14 0 29 -5 35 -13 14z"/>
<path d="M3764 3005 c-3 -8 -4 -20 -2 -27 3 -7 7 -1 10 15 6 29 1 36 -8 12z"/>
<path d="M4064 3005 c-3 -8 -4 -20 -2 -27 3 -7 7 -1 10 15 6 29 1 36 -8 12z"/>
<path d="M3735 3001 c-3 -5 -1 -12 5 -16 5 -3 10 1 10 9 0 18 -6 21 -15 7z"/>
<path d="M3852 2990 c0 -14 2 -19 5 -12 2 6 2 18 0 25 -3 6 -5 1 -5 -13z"/>
<path d="M3877 2990 c-3 -11 -1 -20 4 -20 5 0 9 9 9 20 0 11 -2 20 -4 20 -2 0
-6 -9 -9 -20z"/>
<path d="M4011 2994 c0 -11 3 -14 6 -6 3 7 2 16 -1 19 -3 4 -6 -2 -5 -13z"/>
<path d="M4042 2990 c0 -14 2 -19 5 -12 2 6 2 18 0 25 -3 6 -5 1 -5 -13z"/>
<path d="M4101 2994 c0 -11 3 -14 6 -6 3 7 2 16 -1 19 -3 4 -6 -2 -5 -13z"/>
<path d="M7831 2994 c0 -11 3 -14 6 -6 3 7 2 16 -1 19 -3 4 -6 -2 -5 -13z"/>
<path d="M3955 2980 c3 -5 8 -10 11 -10 2 0 4 5 4 10 0 6 -5 10 -11 10 -5 0
-7 -4 -4 -10z"/>
<path d="M4166 2973 c-6 -14 -5 -15 5 -6 7 7 10 15 7 18 -3 3 -9 -2 -12 -12z"/>
<path d="M4401 2974 c0 -11 3 -14 6 -6 3 7 2 16 -1 19 -3 4 -6 -2 -5 -13z"/>
<path d="M3919 2891 c-108 -12 -153 -39 -114 -71 11 -9 21 -7 48 14 l34 26
339 -2 339 -3 -328 -2 -329 -3 -26 -33 c-15 -17 -49 -57 -77 -87 -27 -30 -66
-74 -85 -98 -26 -32 -41 -42 -64 -42 -16 0 -26 3 -23 6 9 9 -58 44 -83 44 -11
0 -23 -7 -26 -15 -4 -10 -13 -13 -25 -10 -10 4 -33 -1 -51 -9 -18 -8 -64 -18
-103 -21 -88 -8 -178 -22 -232 -36 -39 -11 -42 -13 -36 -40 3 -18 1 -29 -6
-29 -6 0 -11 -8 -11 -19 0 -22 -56 -71 -82 -71 -10 0 -18 6 -18 14 0 16 46 85
69 104 10 8 5 7 -16 -2 -42 -21 -69 -57 -77 -104 -3 -22 -12 -44 -19 -51 -14
-11 -14 -92 -2 -132 3 -10 -1 -29 -10 -42 -19 -30 -9 -40 55 -57 25 -7 50 -16
56 -21 8 -6 14 -4 18 6 9 25 21 18 52 -30 21 -34 44 -53 88 -75 l59 -30 -588
0 c-567 0 -589 -1 -619 -20 -61 -37 -61 -37 -61 -436 l0 -363 29 -30 c16 -17
45 -36 64 -42 55 -18 4096 -7 4135 11 54 26 65 60 72 230 7 186 7 184 3 385
-3 139 -6 164 -23 195 -44 74 -13 71 -679 70 -397 0 -596 3 -596 10 0 5 6 10
13 10 30 0 97 63 119 111 17 36 28 49 43 47 49 -3 65 2 71 27 3 14 1 32 -6 40
-8 10 -10 34 -5 78 7 61 6 64 -19 81 -29 18 -47 53 -51 101 -4 42 -21 125 -26
128 -2 2 -19 14 -36 26 -18 12 -33 28 -33 36 0 7 -4 15 -8 17 -12 4 -112 152
-112 165 0 16 -51 34 -122 43 -79 9 -790 10 -879 1z m436 -73 c2 -7 1 -53 -3
-103 -6 -75 -10 -90 -24 -90 -9 0 -20 -4 -24 -8 -8 -7 -64 -10 -64 -3 0 24 17
36 50 36 l39 0 -5 58 c-9 97 -11 104 -42 100 -26 -3 -27 -6 -32 -73 -8 -109
-10 -111 -136 -118 -59 -4 -131 -7 -159 -7 -50 0 -53 2 -58 28 -5 24 -13 30
-47 38 l-41 9 58 72 58 72 213 1 c161 0 214 -3 217 -12z m575 -45 c17 -29 29
-53 26 -53 -2 0 -23 25 -46 56 -27 36 -36 55 -26 52 9 -1 30 -27 46 -55z
m-176 -17 c17 -36 18 -40 3 -72 -16 -32 -19 -34 -70 -34 -30 0 -88 -3 -129 -6
-87 -8 -95 -1 -99 74 -2 23 -7 42 -11 42 -4 0 -8 -7 -8 -15 0 -8 -4 -15 -10
-15 -5 0 -10 12 -10 26 0 19 4 25 15 20 9 -3 18 1 22 9 4 13 28 15 142 13
l136 -3 19 -39z m-894 -106 c0 -5 -2 -10 -4 -10 -3 0 -8 5 -11 10 -3 6 -1 10
4 10 6 0 11 -4 11 -10z m513 -127 c-13 -2 -35 -2 -50 0 -16 2 -5 4 22 4 28 0
40 -2 28 -4z m-856 -19 c-3 -3 -12 -4 -19 -1 -8 3 -5 6 6 6 11 1 17 -2 13 -5z
m-140 -46 c12 -9 12 -13 1 -19 -17 -9 -218 1 -218 12 0 35 176 41 217 7z
m-100 -159 c3 -56 17 -71 62 -63 20 4 41 11 48 16 15 12 32 -44 26 -87 -11
-72 -83 -135 -154 -135 -38 0 -114 42 -130 72 -39 73 -28 151 30 198 19 17 42
30 51 30 8 0 0 -9 -19 -21 -19 -11 -41 -27 -49 -36 -14 -14 -14 -17 3 -29 10
-8 33 -14 51 -14 29 0 33 4 40 38 4 20 7 45 6 55 -1 10 5 17 16 17 14 0 18 -9
19 -41z m1658 -6 c2 -23 7 -47 10 -54 8 -11 80 -7 93 6 11 11 -14 39 -54 62
-21 13 -31 23 -22 23 22 0 75 -46 93 -81 46 -87 -36 -219 -136 -219 -81 0
-159 72 -159 148 0 37 22 96 40 107 8 5 7 0 -2 -14 -17 -28 -1 -40 50 -37 32
1 37 5 45 36 6 24 5 41 -3 53 -10 16 -8 18 16 15 23 -3 27 -8 29 -45z m-1605
27 c8 -5 11 -10 5 -10 -5 0 -17 5 -25 10 -8 5 -10 10 -5 10 6 0 17 -5 25 -10z
m1515 -10 c-3 -5 -11 -10 -16 -10 -6 0 -7 5 -4 10 3 6 11 10 16 10 6 0 7 -4 4
-10z m-1470 -21 c11 -17 -1 -21 -15 -4 -8 9 -8 15 -2 15 6 0 14 -5 17 -11z
m1310 -183 c11 -8 40 -33 64 -56 24 -23 63 -50 85 -60 l41 -19 -62 0 c-60 -1
-63 0 -63 23 0 45 -40 68 -81 46 -28 -16 -24 -33 6 -26 14 4 31 4 37 0 12 -8
-55 -35 -92 -38 -22 -1 -25 4 -28 37 -5 53 -32 51 -32 -3 0 -36 -2 -40 -25
-40 -19 0 -25 5 -25 23 0 38 -16 51 -64 52 l-46 2 0 -39 c0 -34 -3 -38 -25
-38 -21 0 -25 5 -25 30 0 39 -37 59 -75 42 -35 -16 -32 -35 4 -27 17 3 32 2
36 -4 3 -6 -2 -11 -12 -11 -11 0 -28 -7 -39 -15 -33 -25 -62 -19 -69 14 -9 42
-31 58 -56 43 -11 -7 -25 -9 -32 -5 -7 4 -29 8 -49 9 -35 0 -37 -1 -40 -35 -2
-28 -8 -37 -24 -39 -17 -2 -23 4 -27 28 -13 63 -101 64 -113 0 -5 -21 -12 -30
-27 -30 -26 0 -49 31 -35 47 19 23 0 62 -35 72 -23 7 13 10 138 12 233 3 759
15 765 17 3 1 14 -4 25 -12z m-1169 -7 c4 -7 32 -9 85 -4 l79 7 0 -66 0 -66
-192 0 -192 0 51 25 c28 14 69 46 91 70 40 45 65 55 78 34z m239 -43 c16 -12
17 -16 6 -30 -26 -31 -62 -9 -47 29 7 19 17 19 41 1z m179 -52 c8 -21 -1 -34
-23 -34 -24 0 -30 8 -24 31 6 23 38 25 47 3z m154 -12 c3 -17 -2 -22 -17 -22
-16 0 -21 6 -21 26 0 33 33 30 38 -4z m72 3 c0 -25 -23 -35 -35 -15 -10 16 2
40 20 40 9 0 15 -9 15 -25z m310 0 c0 -18 -5 -25 -20 -25 -15 0 -20 7 -20 25
0 18 5 25 20 25 15 0 20 -7 20 -25z m-710 -15 c0 -5 -9 -10 -20 -10 -11 0 -20
5 -20 10 0 6 9 10 20 10 11 0 20 -4 20 -10z m2444 -66 c14 -13 16 -61 16 -375
l0 -360 -25 -24 -24 -25 -1519 0 c-835 0 -1688 -3 -1895 -7 l-377 -6 0 401 0
402 388 3 c213 1 1070 3 1904 5 1367 2 1518 0 1532 -14z m-3869 -76 c3 -13 4
-86 3 -163 l-3 -140 -142 -3 -143 -3 0 159 c0 87 3 162 7 165 3 4 66 7 139 7
130 0 134 -1 139 -22z m-170 -403 c28 -27 31 -57 12 -95 -11 -20 -11 -33 0
-69 17 -59 16 -71 -6 -71 -14 0 -24 14 -38 53 l-18 52 -3 -53 c-3 -48 -5 -53
-25 -50 -21 3 -22 8 -25 117 -2 75 1 118 9 127 18 22 67 17 94 -11z m155 -5
c17 -17 20 -33 20 -103 0 -70 -3 -87 -20 -105 -26 -27 -60 -28 -91 -3 -22 17
-24 27 -24 104 0 69 3 89 19 106 24 27 70 27 96 1z"/>
<path d="M3120 2179 c0 -17 8 -44 17 -60 17 -29 33 -38 33 -19 0 6 9 19 20 30
24 24 17 46 -21 65 -41 22 -49 19 -49 -16z"/>
<path d="M3348 2193 c-16 -8 -28 -21 -28 -29 0 -21 29 -74 40 -74 18 0 40 45
40 82 0 42 -8 45 -52 21z"/>
<path d="M3240 2110 c0 -5 12 -10 26 -10 14 0 23 4 19 10 -3 6 -15 10 -26 10
-10 0 -19 -4 -19 -10z"/>
<path d="M3202 2069 c6 -18 106 -25 122 -9 8 8 -1 10 -34 9 -25 -2 -56 1 -69
5 -18 6 -22 5 -19 -5z"/>
<path d="M4770 2184 c0 -30 28 -94 41 -94 15 0 48 61 42 77 -6 14 -54 43 -73
43 -5 0 -10 -12 -10 -26z"/>
<path d="M5003 2195 c-22 -9 -33 -21 -33 -34 0 -27 17 -36 37 -19 18 14 18 14
-3 -37 -10 -23 14 -18 30 8 18 27 25 89 11 93 -5 2 -25 -3 -42 -11z"/>
<path d="M4890 2110 c0 -5 12 -10 26 -10 14 0 23 4 19 10 -3 6 -15 10 -26 10
-10 0 -19 -4 -19 -10z"/>
<path d="M4850 2065 c0 -12 14 -15 59 -15 33 0 62 4 65 9 10 15 -5 19 -39 10
-21 -6 -42 -6 -59 1 -21 7 -26 7 -26 -5z"/>
<path d="M4560 2090 c0 -5 7 -10 15 -10 8 0 15 5 15 10 0 6 -7 10 -15 10 -8 0
-15 -4 -15 -10z"/>
<path d="M3532 1785 c-8 -18 -12 -107 -12 -280 0 -315 -10 -295 149 -295 60 0
117 3 126 6 39 16 45 53 45 301 0 172 -4 245 -13 263 -12 25 -15 25 -148 28
l-136 3 -11 -26z m205 -282 l2 -203 -48 0 c-26 0 -52 5 -59 12 -9 9 -12 68
-12 205 l0 194 58 -3 57 -3 2 -202z"/>
<path d="M4730 1790 c-16 -10 -11 -37 45 -290 14 -63 33 -151 42 -195 9 -44
20 -86 26 -92 5 -8 32 -13 62 -13 63 0 59 -8 100 185 14 66 35 163 47 215 12
52 22 118 22 145 1 49 0 50 -30 53 -18 2 -36 -3 -43 -12 -11 -13 -45 -185 -74
-380 -18 -116 -31 -86 -73 160 -25 147 -41 213 -52 222 -19 14 -51 16 -72 2z"/>
<path d="M5220 1784 c0 -10 -5 -14 -15 -10 -8 3 -26 1 -40 -4 l-25 -10 0 -248
c0 -245 0 -249 23 -270 36 -34 76 -44 174 -43 102 0 121 7 158 61 40 57 48
182 10 150 -8 -6 -31 -10 -52 -8 -36 3 -38 1 -44 -32 -9 -53 -13 -64 -24 -72
-15 -11 -83 -9 -90 2 -4 6 -10 8 -15 5 -5 -3 -16 5 -24 17 -13 18 -16 54 -16
190 0 190 1 192 83 186 42 -3 42 -3 47 -47 4 -39 9 -46 33 -52 34 -9 72 3 81
26 10 27 7 112 -5 139 -15 32 -33 36 -156 36 -88 0 -103 -2 -103 -16z"/>
<path d="M5823 1784 c-5 -13 -23 -15 -116 -13 l-111 4 -18 -30 c-16 -27 -18
-56 -18 -275 0 -135 4 -251 9 -259 9 -14 82 -18 102 -5 5 3 9 45 9 94 0 71 3
89 16 94 9 3 55 6 104 6 85 0 88 1 94 24 3 13 2 35 -2 47 -9 22 -13 23 -105
20 -113 -3 -117 0 -117 103 0 100 -6 96 136 96 115 0 124 1 134 21 13 23 5 70
-13 81 -23 15 -97 9 -104 -8z"/>
<path d="M2670 1495 l0 -297 159 4 c142 3 161 5 181 23 36 32 50 70 50 133 0
68 -20 124 -51 146 l-22 15 26 31 c47 55 48 145 2 197 l-23 28 -144 1 c-78 0
-151 4 -160 8 -17 8 -18 -10 -18 -289z m234 205 c14 -5 32 -20 41 -33 14 -21
14 -28 1 -59 -8 -19 -23 -41 -32 -49 -10 -8 -15 -9 -11 -2 6 9 -10 13 -55 15
l-63 3 -3 59 c-2 41 1 62 10 67 18 12 81 11 112 -1z m-21 -147 c-7 -2 -19 -2
-25 0 -7 3 -2 5 12 5 14 0 19 -2 13 -5z m61 -104 c28 -33 34 -81 15 -121 -10
-22 -15 -24 -92 -23 l-82 2 -3 73 c-2 40 -1 79 2 87 4 9 25 13 70 13 59 0 66
-2 90 -31z"/>
<path d="M4156 1783 c-4 -5 -26 -8 -49 -8 -39 -1 -44 -4 -75 -50 -37 -55 -50
-64 -63 -44 -12 20 -21 -10 -17 -57 3 -36 5 -39 37 -42 23 -2 40 3 56 18 13
12 27 20 32 17 4 -3 7 -78 5 -167 l-3 -161 -72 2 -72 2 -7 -34 c-13 -60 -14
-59 171 -59 l171 0 6 26 c4 14 2 36 -4 48 -8 18 -16 22 -46 18 l-36 -4 -2 248
c-3 236 -7 271 -32 247z"/>
<path d="M2070 1696 l0 -134 30 -4 c17 -3 32 -2 35 0 3 3 5 65 5 139 l0 133
-35 0 -35 0 0 -134z"/>
<path d="M2240 1689 l0 -140 38 3 37 3 3 138 3 137 -41 0 -40 0 0 -141z"/>
<path d="M2110 1386 c0 -17 5 -26 16 -26 10 0 14 7 12 22 -5 32 -28 35 -28 4z"/>
<path d="M2263 1403 c-9 -3 -13 -28 -13 -74 0 -55 3 -71 16 -76 23 -9 34 15
34 78 0 57 -13 81 -37 72z"/>
<path d="M7825 2870 c3 -5 12 -7 20 -3 9 3 15 -1 15 -10 0 -8 7 -20 15 -27 13
-11 14 -10 9 6 -4 10 -11 25 -17 32 -11 14 -51 17 -42 2z"/>
<path d="M7140 2860 c0 -5 5 -10 10 -10 6 0 10 5 10 10 0 6 -4 10 -10 10 -5 0
-10 -4 -10 -10z"/>
<path d="M7421 2814 c0 -11 3 -14 6 -6 3 7 2 16 -1 19 -3 4 -6 -2 -5 -13z"/>
<path d="M7918 2803 c6 -2 18 -2 25 0 6 3 1 5 -13 5 -14 0 -19 -2 -12 -5z"/>
<path d="M6576 2774 c-4 -9 -4 -19 -1 -22 2 -3 7 3 11 12 4 9 4 19 1 22 -2 3
-7 -3 -11 -12z"/>
<path d="M7965 2780 c3 -5 8 -10 11 -10 2 0 4 5 4 10 0 6 -5 10 -11 10 -5 0
-7 -4 -4 -10z"/>
<path d="M555 2721 c-3 -5 -2 -12 3 -15 5 -3 9 1 9 9 0 17 -3 19 -12 6z"/>
<path d="M842 2700 c0 -19 2 -27 5 -17 2 9 2 25 0 35 -3 9 -5 1 -5 -18z"/>
<path d="M622 2695 c-6 -14 -8 -25 -3 -25 8 0 23 41 17 47 -1 2 -8 -8 -14 -22z"/>
<path d="M668 2702 c-18 -4 -23 -14 -12 -25 4 -3 13 1 21 9 18 17 15 22 -9 16z"/>
<path d="M737 2680 c-3 -11 -1 -20 4 -20 5 0 9 9 9 20 0 11 -2 20 -4 20 -2 0
-6 -9 -9 -20z"/>
<path d="M760 2683 c0 -11 3 -14 8 -7 4 6 14 14 22 17 10 4 8 6 -7 6 -16 1
-23 -5 -23 -16z"/>
<path d="M811 2684 c0 -11 3 -14 6 -6 3 7 2 16 -1 19 -3 4 -6 -2 -5 -13z"/>
<path d="M5631 2684 c0 -11 3 -14 6 -6 3 7 2 16 -1 19 -3 4 -6 -2 -5 -13z"/>
<path d="M6515 2650 c-8 -13 5 -13 25 0 13 8 13 10 -2 10 -9 0 -20 -4 -23 -10z"/>
<path d="M1480 2620 c0 -5 5 -10 10 -10 6 0 10 5 10 10 0 6 -4 10 -10 10 -5 0
-10 -4 -10 -10z"/>
<path d="M1530 2600 c0 -11 2 -20 4 -20 2 0 6 9 9 20 3 11 1 20 -4 20 -5 0 -9
-9 -9 -20z"/>
<path d="M1576 2612 c7 -4 14 -16 17 -27 4 -15 5 -14 6 8 1 20 -4 27 -16 27
-12 0 -14 -3 -7 -8z"/>
<path d="M1628 2613 c6 -2 18 -2 25 0 6 3 1 5 -13 5 -14 0 -19 -2 -12 -5z"/>
<path d="M6972 2590 c0 -19 2 -27 5 -17 2 9 2 25 0 35 -3 9 -5 1 -5 -18z"/>
<path d="M7061 2594 c0 -11 3 -14 6 -6 3 7 2 16 -1 19 -3 4 -6 -2 -5 -13z"/>
<path d="M7110 2590 c0 -11 2 -20 4 -20 2 0 6 9 9 20 3 11 1 20 -4 20 -5 0 -9
-9 -9 -20z"/>
<path d="M7202 2580 c0 -19 2 -27 5 -17 2 9 2 25 0 35 -3 9 -5 1 -5 -18z"/>
<path d="M7320 2600 c0 -5 7 -7 15 -4 8 4 15 8 15 10 0 2 -7 4 -15 4 -8 0 -15
-4 -15 -10z"/>
<path d="M7458 2585 c-3 -14 -1 -25 3 -25 5 0 9 11 9 25 0 14 -2 25 -4 25 -2
0 -6 -11 -8 -25z"/>
<path d="M7627 2590 c3 -11 7 -20 9 -20 2 0 4 9 4 20 0 11 -4 20 -9 20 -5 0
-7 -9 -4 -20z"/>
<path d="M7660 2579 c0 -16 4 -28 9 -25 8 5 3 56 -5 56 -2 0 -4 -14 -4 -31z"/>
<path d="M7770 2585 c0 -14 3 -25 8 -25 4 0 7 11 7 25 0 14 -3 25 -7 25 -5 0
-8 -11 -8 -25z"/>
<path d="M7802 2590 c0 -14 2 -19 5 -12 2 6 2 18 0 25 -3 6 -5 1 -5 -13z"/>
<path d="M1470 2589 c0 -5 5 -7 10 -4 6 3 10 8 10 11 0 2 -4 4 -10 4 -5 0 -10
-5 -10 -11z"/>
<path d="M1500 2591 c0 -6 4 -13 10 -16 6 -3 7 1 4 9 -7 18 -14 21 -14 7z"/>
<path d="M7146 2591 c-3 -5 1 -14 8 -20 12 -10 13 -8 9 8 -6 23 -9 25 -17 12z"/>
<path d="M7181 2584 c0 -11 3 -14 6 -6 3 7 2 16 -1 19 -3 4 -6 -2 -5 -13z"/>
<path d="M7491 2584 c0 -11 3 -14 6 -6 3 7 2 16 -1 19 -3 4 -6 -2 -5 -13z"/>
<path d="M7515 2591 c-3 -5 -1 -12 5 -16 5 -3 10 1 10 9 0 18 -6 21 -15 7z"/>
<path d="M7930 2584 c0 -8 5 -12 10 -9 6 4 8 11 5 16 -9 14 -15 11 -15 -7z"/>
<path d="M7980 2580 c0 -19 3 -21 12 -12 9 9 9 15 0 24 -9 9 -12 7 -12 -12z"/>
<path d="M6490 2573 c0 -7 5 -15 10 -18 6 -3 11 -16 11 -28 1 -17 2 -18 6 -5
2 10 -3 28 -11 40 -9 12 -16 17 -16 11z"/>
<path d="M7417 2573 c-4 -3 -7 -11 -7 -17 0 -6 5 -5 12 2 6 6 9 14 7 17 -3 3
-9 2 -12 -2z"/>
<path d="M7345 2560 c3 -5 8 -10 11 -10 2 0 4 5 4 10 0 6 -5 10 -11 10 -5 0
-7 -4 -4 -10z"/>
<path d="M7961 2493 c-1 -24 3 -31 13 -27 8 3 17 12 20 19 3 9 0 12 -9 9 -7
-3 -15 2 -18 13 -3 10 -5 4 -6 -14z"/>
<path d="M7130 2483 c0 -18 4 -33 10 -33 5 0 7 7 4 15 -4 10 0 15 12 16 15 0
15 2 4 6 -8 3 -18 11 -22 17 -4 6 -8 -4 -8 -21z"/>
<path d="M7732 2480 c0 -19 2 -27 5 -17 2 9 2 25 0 35 -3 9 -5 1 -5 -18z"/>
<path d="M7242 2480 c0 -14 2 -19 5 -12 2 6 2 18 0 25 -3 6 -5 1 -5 -13z"/>
<path d="M7267 2479 c4 -13 8 -18 11 -10 2 7 -1 18 -6 23 -8 8 -9 4 -5 -13z"/>
<path d="M7293 2485 c-3 -9 -3 -18 -1 -21 3 -3 8 4 11 16 6 23 -1 27 -10 5z"/>
<path d="M7627 2479 c4 -13 8 -18 11 -10 2 7 -1 18 -6 23 -8 8 -9 4 -5 -13z"/>
<path d="M7762 2480 c0 -14 2 -19 5 -12 2 6 2 18 0 25 -3 6 -5 1 -5 -13z"/>
<path d="M791 2481 c-8 -6 -9 -11 -3 -15 6 -3 14 -1 17 5 9 14 2 20 -14 10z"/>
<path d="M7856 2467 c3 -10 9 -15 12 -12 3 3 0 11 -7 18 -10 9 -11 8 -5 -6z"/>
<path d="M2622 2300 c0 -19 2 -27 5 -17 2 9 2 25 0 35 -3 9 -5 1 -5 -18z"/>
<path d="M2655 2300 c0 -15 3 -26 8 -23 4 2 7 13 7 23 0 10 -3 21 -7 23 -5 3
-8 -8 -8 -23z"/>
<path d="M2812 2290 c0 -14 2 -19 5 -12 2 6 2 18 0 25 -3 6 -5 1 -5 -13z"/>
<path d="M2680 2289 c0 -5 5 -7 10 -4 6 3 10 8 10 11 0 2 -4 4 -10 4 -5 0 -10
-5 -10 -11z"/>
<path d="M2740 2291 c0 -5 5 -13 10 -16 6 -3 10 -2 10 4 0 5 -4 13 -10 16 -5
3 -10 2 -10 -4z"/>
<path d="M2780 2279 c0 -5 5 -7 10 -4 6 3 10 8 10 11 0 2 -4 4 -10 4 -5 0 -10
-5 -10 -11z"/>
<path d="M1262 2190 c-1 -22 3 -40 8 -40 6 0 10 15 10 34 0 19 6 37 13 39 6 3
3 6 -9 6 -17 1 -21 -5 -22 -39z"/>
<path d="M1312 2175 c0 -16 2 -22 5 -12 2 9 2 23 0 30 -3 6 -5 -1 -5 -18z"/>
<path d="M1340 2175 c0 -14 2 -25 4 -25 2 0 6 11 8 25 3 14 1 25 -3 25 -5 0
-9 -11 -9 -25z"/>
<path d="M1378 2175 c2 -14 6 -25 8 -25 2 0 4 11 4 25 0 14 -4 25 -9 25 -4 0
-6 -11 -3 -25z"/>
<path d="M1408 2175 c2 -14 6 -25 8 -25 2 0 4 11 4 25 0 14 -4 25 -9 25 -4 0
-6 -11 -3 -25z"/>
<path d="M1442 2175 c0 -16 2 -22 5 -12 2 9 2 23 0 30 -3 6 -5 -1 -5 -18z"/>
<path d="M1470 2190 c0 -5 8 -14 18 -19 16 -10 16 -10 -2 -11 -15 0 -17 -3 -8
-12 8 -8 8 -17 1 -30 -14 -26 -4 -48 20 -48 26 0 37 31 16 46 -11 8 -14 20 -9
38 5 20 2 26 -11 26 -9 0 -13 5 -10 10 3 6 1 10 -4 10 -6 0 -11 -4 -11 -10z
m43 -95 c1 -5 -6 -11 -15 -13 -11 -2 -18 3 -18 13 0 17 30 18 33 0z"/>
<path d="M1530 2175 c0 -18 5 -25 19 -25 21 0 36 29 22 43 -6 6 -9 3 -8 -8 1
-10 -4 -20 -12 -23 -10 -3 -12 1 -8 17 3 11 1 21 -4 21 -5 0 -9 -11 -9 -25z"/>
<path d="M1620 2181 c0 -12 -5 -21 -11 -21 -5 0 -7 5 -3 12 4 7 3 8 -4 4 -20
-12 -13 -26 13 -26 18 0 25 5 25 19 0 11 -4 23 -10 26 -5 3 -10 -3 -10 -14z"/>
<path d="M1650 2175 c0 -14 2 -25 4 -25 2 0 6 11 8 25 3 14 1 25 -3 25 -5 0
-9 -11 -9 -25z"/>
<path d="M1720 2191 c0 -6 -7 -11 -15 -11 -8 0 -15 -7 -15 -15 0 -8 5 -15 11
-15 5 0 7 5 4 10 -3 6 -1 10 4 10 6 0 11 -4 11 -10 0 -5 5 -10 10 -10 6 0 10
9 10 19 0 11 -4 23 -10 26 -5 3 -10 1 -10 -4z"/>
<path d="M5660 2118 c0 -24 3 -29 9 -18 6 8 7 18 4 23 -3 5 1 13 8 18 11 7 10
9 -3 9 -14 0 -18 -8 -18 -32z"/>
<path d="M5892 2110 c0 -14 2 -19 5 -12 2 6 2 18 0 25 -3 6 -5 1 -5 -13z"/>
<path d="M5922 2110 c0 -14 2 -19 5 -12 2 6 2 18 0 25 -3 6 -5 1 -5 -13z"/>
<path d="M5947 2109 c4 -13 8 -18 11 -10 2 7 -1 18 -6 23 -8 8 -9 4 -5 -13z"/>
<path d="M6521 2104 c0 -11 3 -14 6 -6 3 7 2 16 -1 19 -3 4 -6 -2 -5 -13z"/>
<path d="M5836 2095 c-9 -26 -7 -32 5 -12 6 10 9 21 6 23 -2 3 -7 -2 -11 -11z"/>
<path d="M2500 2033 c0 -21 3 -24 9 -14 5 8 7 20 4 28 -8 21 -13 15 -13 -14z"/>
<path d="M2537 2047 c-3 -8 -1 -20 4 -28 6 -10 9 -7 9 14 0 29 -5 35 -13 14z"/>
<path d="M2622 2030 c0 -14 2 -19 5 -12 2 6 2 18 0 25 -3 6 -5 1 -5 -13z"/>
<path d="M2647 2030 c3 -11 7 -20 9 -20 2 0 4 9 4 20 0 11 -4 20 -9 20 -5 0
-7 -9 -4 -20z"/>
<path d="M2880 2030 c0 -11 2 -20 4 -20 2 0 6 9 9 20 3 11 1 20 -4 20 -5 0 -9
-9 -9 -20z"/>
<path d="M2940 2031 c0 -12 5 -21 10 -21 6 0 10 6 10 14 0 8 -4 18 -10 21 -5
3 -10 -3 -10 -14z"/>
<path d="M2670 2030 c0 -5 5 -10 10 -10 6 0 10 5 10 10 0 6 -4 10 -10 10 -5 0
-10 -4 -10 -10z"/>
<path d="M2811 2024 c0 -11 3 -14 6 -6 3 7 2 16 -1 19 -3 4 -6 -2 -5 -13z"/>
<path d="M2861 2024 c0 -11 3 -14 6 -6 3 7 2 16 -1 19 -3 4 -6 -2 -5 -13z"/>
<path d="M6485 1949 c-11 -16 -1 -19 13 -3 7 8 8 14 3 14 -5 0 -13 -5 -16 -11z"/>
<path d="M6500 1916 c0 -2 7 -9 15 -16 9 -7 15 -8 15 -2 0 5 -7 12 -15 16 -8
3 -15 4 -15 2z"/>
<path d="M6892 1860 c0 -19 2 -27 5 -17 2 9 2 25 0 35 -3 9 -5 1 -5 -18z"/>
<path d="M7068 1853 c5 -21 7 -23 10 -9 2 10 0 22 -6 28 -6 6 -7 0 -4 -19z"/>
<path d="M7121 1853 c1 -23 2 -24 6 -5 5 26 19 29 27 5 4 -14 4 -14 3 2 -1 11
-10 21 -20 23 -13 3 -17 -3 -16 -25z"/>
<path d="M6970 1854 c0 -8 4 -13 9 -10 5 4 11 1 13 -5 3 -8 10 -5 21 6 10 9
15 20 12 23 -3 4 -11 0 -16 -8 -8 -11 -12 -12 -16 -2 -7 17 -23 15 -23 -4z"/>
<path d="M6325 1849 c-4 -6 -5 -12 -2 -15 2 -3 7 2 10 11 7 17 1 20 -8 4z"/>
<path d="M6442 1830 c0 -19 2 -27 5 -17 2 9 2 25 0 35 -3 9 -5 1 -5 -18z"/>
<path d="M6522 1830 c0 -19 2 -27 5 -17 2 9 2 25 0 35 -3 9 -5 1 -5 -18z"/>
<path d="M6715 1851 c-3 -5 -1 -12 5 -16 5 -3 10 1 10 9 0 18 -6 21 -15 7z"/>
<path d="M6410 1826 c0 -8 5 -18 10 -21 6 -3 10 1 10 9 0 8 -4 18 -10 21 -5 3
-10 -1 -10 -9z"/>
<path d="M6492 1820 c0 -14 2 -19 5 -12 2 6 2 18 0 25 -3 6 -5 1 -5 -13z"/>
<path d="M6361 1814 c0 -11 3 -14 6 -6 3 7 2 16 -1 19 -3 4 -6 -2 -5 -13z"/>
<path d="M270 1786 c0 -22 3 -27 11 -19 8 8 8 16 0 30 -9 16 -10 14 -11 -11z"/>
<path d="M397 1793 c-10 -9 -9 -43 1 -43 4 0 8 11 8 25 0 28 0 28 -9 18z"/>
<path d="M608 1773 c5 -21 7 -23 10 -9 2 10 0 22 -6 28 -6 6 -7 0 -4 -19z"/>
<path d="M654 1789 c-4 -8 -3 -9 4 -5 8 5 12 -2 12 -18 0 -14 4 -26 9 -26 10
0 2 48 -10 55 -4 3 -11 0 -15 -6z"/>
<path d="M341 1774 c0 -11 3 -14 6 -6 3 7 2 16 -1 19 -3 4 -6 -2 -5 -13z"/>
<path d="M371 1774 c0 -11 3 -14 6 -6 3 7 2 16 -1 19 -3 4 -6 -2 -5 -13z"/>
<path d="M422 1770 c0 -14 2 -19 5 -12 2 6 2 18 0 25 -3 6 -5 1 -5 -13z"/>
<path d="M452 1770 c0 -14 2 -19 5 -12 2 6 2 18 0 25 -3 6 -5 1 -5 -13z"/>
<path d="M470 1783 c0 -5 5 -15 10 -23 8 -12 10 -11 10 8 0 12 -4 22 -10 22
-5 0 -10 -3 -10 -7z"/>
<path d="M944 1777 c-8 -9 -7 -16 1 -24 10 -9 13 -6 13 13 0 13 -1 24 -2 24 0
-1 -6 -6 -12 -13z"/>
<path d="M970 1755 c0 -14 3 -25 8 -25 4 0 7 11 7 25 0 14 -3 25 -7 25 -5 0
-8 -11 -8 -25z"/>
<path d="M1027 1766 c-15 -12 -16 -14 -2 -20 9 -3 15 0 15 10 0 8 5 12 10 9 6
-3 10 -1 10 4 0 15 -11 13 -33 -3z"/>
<path d="M1109 1770 c-12 -31 19 -57 36 -30 3 5 0 7 -9 4 -10 -4 -16 2 -18 18
-2 16 -5 19 -9 8z"/>
<path d="M1176 1772 c7 -4 14 -16 17 -27 4 -15 5 -14 6 8 1 20 -4 27 -16 27
-12 0 -14 -3 -7 -8z"/>
<path d="M1210 1755 c0 -21 3 -26 9 -16 5 7 14 10 20 7 7 -5 11 1 11 16 0 19
-2 20 -10 8 -9 -13 -11 -13 -20 0 -7 12 -10 8 -10 -15z"/>
<path d="M1288 1766 c-10 -7 -18 -19 -18 -27 0 -12 2 -12 9 0 5 7 14 10 20 7
7 -5 11 1 11 13 0 24 0 24 -22 7z"/>
<path d="M1081 1754 c0 -11 3 -14 6 -6 3 7 2 16 -1 19 -3 4 -6 -2 -5 -13z"/>
<path d="M1320 1754 c0 -8 5 -12 10 -9 6 4 8 11 5 16 -9 14 -15 11 -15 -7z"/>
<path d="M1351 1754 c0 -11 3 -14 6 -6 3 7 2 16 -1 19 -3 4 -6 -2 -5 -13z"/>
<path d="M6902 1745 c0 -16 2 -22 5 -12 2 9 2 23 0 30 -3 6 -5 -1 -5 -18z"/>
<path d="M635 1750 c-3 -5 -2 -10 4 -10 5 0 13 5 16 10 3 6 2 10 -4 10 -5 0
-13 -4 -16 -10z"/>
<path d="M6972 1740 c0 -14 2 -19 5 -12 2 6 2 18 0 25 -3 6 -5 1 -5 -13z"/>
<path d="M7001 1744 c0 -11 3 -14 6 -6 3 7 2 16 -1 19 -3 4 -6 -2 -5 -13z"/>
<path d="M7032 1740 c0 -14 2 -19 5 -12 2 6 2 18 0 25 -3 6 -5 1 -5 -13z"/>
<path d="M7080 1745 c0 -8 4 -15 10 -15 5 0 7 7 4 15 -4 8 -8 15 -10 15 -2 0
-4 -7 -4 -15z"/>
<path d="M7111 1744 c0 -11 3 -14 6 -6 3 7 2 16 -1 19 -3 4 -6 -2 -5 -13z"/>
<path d="M1873 1710 c-1 -11 2 -22 8 -25 5 -4 9 5 9 19 0 30 -15 35 -17 6z"/>
<path d="M1906 1702 c-2 -4 -1 -14 5 -22 7 -12 9 -10 9 8 0 23 -5 28 -14 14z"/>
<path d="M301 1669 c0 -26 2 -30 8 -14 8 19 8 19 19 0 6 -11 13 -17 17 -14 3
4 -5 19 -19 34 l-26 28 1 -34z"/>
<path d="M341 1684 c0 -11 3 -14 6 -6 3 7 2 16 -1 19 -3 4 -6 -2 -5 -13z"/>
<path d="M652 1670 c0 -19 2 -27 5 -17 2 9 2 25 0 35 -3 9 -5 1 -5 -18z"/>
<path d="M421 1675 c0 -5 3 -16 8 -23 7 -11 9 -10 14 3 4 9 3 14 -2 10 -5 -3
-12 1 -14 7 -3 7 -6 9 -6 3z"/>
<path d="M602 1660 c0 -14 2 -19 5 -12 2 6 2 18 0 25 -3 6 -5 1 -5 -13z"/>
<path d="M546 1657 c3 -10 9 -15 12 -12 3 3 0 11 -7 18 -10 9 -11 8 -5 -6z"/>
<path d="M970 1650 c0 -11 2 -20 4 -20 2 0 6 9 9 20 3 11 1 20 -4 20 -5 0 -9
-9 -9 -20z"/>
<path d="M1007 1664 c-11 -11 -8 -36 3 -29 6 4 8 11 5 16 -4 5 -2 9 4 9 5 0
12 -5 14 -10 3 -6 4 -5 3 2 -3 14 -20 21 -29 12z"/>
<path d="M1050 1650 c0 -11 2 -20 4 -20 2 0 6 9 9 20 3 11 1 20 -4 20 -5 0 -9
-9 -9 -20z"/>
<path d="M1146 1662 c6 -4 10 -15 8 -26 -2 -13 1 -15 8 -8 13 13 3 42 -14 42
-9 0 -10 -3 -2 -8z"/>
<path d="M1181 1643 c2 -24 2 -25 6 -5 2 12 8 22 13 22 5 0 11 -10 13 -22 4
-20 4 -19 6 5 1 21 -4 27 -19 27 -15 0 -20 -6 -19 -27z"/>
<path d="M1262 1645 c0 -16 2 -22 5 -12 2 9 2 23 0 30 -3 6 -5 -1 -5 -18z"/>
<path d="M1288 1643 c5 -21 7 -23 10 -9 2 10 0 22 -6 28 -6 6 -7 0 -4 -19z"/>
<path d="M7007 1659 c7 -7 15 -10 18 -7 3 3 -2 9 -12 12 -14 6 -15 5 -6 -5z"/>
<path d="M1081 1644 c0 -11 3 -14 6 -6 3 7 2 16 -1 19 -3 4 -6 -2 -5 -13z"/>
<path d="M1112 1640 c0 -14 2 -19 5 -12 2 6 2 18 0 25 -3 6 -5 1 -5 -13z"/>
<path d="M918 1623 c6 -2 18 -2 25 0 6 3 1 5 -13 5 -14 0 -19 -2 -12 -5z"/>
<path d="M6700 1626 c0 -2 7 -7 16 -10 8 -3 12 -2 9 4 -6 10 -25 14 -25 6z"/>
<path d="M6868 1593 c6 -2 18 -2 25 0 6 3 1 5 -13 5 -14 0 -19 -2 -12 -5z"/>
<path d="M6912 1560 c0 -14 2 -19 5 -12 2 6 2 18 0 25 -3 6 -5 1 -5 -13z"/>
<path d="M6991 1566 c-8 -10 -9 -16 -1 -21 5 -3 10 0 10 9 0 8 6 17 13 19 7 4
8 6 1 6 -6 1 -17 -5 -23 -13z"/>
<path d="M7043 1565 c-3 -9 -3 -19 1 -22 3 -4 6 1 6 11 0 9 5 14 10 11 6 -3
10 -1 10 4 0 17 -20 13 -27 -4z"/>
<path d="M7110 1571 c13 -9 13 -11 -2 -11 -10 0 -18 -4 -18 -8 0 -4 9 -8 20
-8 24 0 23 27 0 33 -13 4 -13 3 0 -6z"/>
<path d="M6870 1560 c0 -5 5 -10 11 -10 5 0 7 5 4 10 -3 6 -8 10 -11 10 -2 0
-4 -4 -4 -10z"/>
<path d="M6942 1550 c0 -14 2 -19 5 -12 2 6 2 18 0 25 -3 6 -5 1 -5 -13z"/>
<path d="M6300 1516 c0 -8 4 -17 9 -20 5 -4 7 3 4 14 -6 23 -13 26 -13 6z"/>
<path d="M6332 1500 c0 -14 2 -19 5 -12 2 6 2 18 0 25 -3 6 -5 1 -5 -13z"/>
<path d="M6386 1512 c-2 -4 -1 -14 5 -22 7 -12 9 -10 9 8 0 23 -5 28 -14 14z"/>
<path d="M6492 1500 c0 -14 2 -19 5 -12 2 6 2 18 0 25 -3 6 -5 1 -5 -13z"/>
<path d="M6360 1490 c0 -5 5 -10 11 -10 5 0 7 5 4 10 -3 6 -8 10 -11 10 -2 0
-4 -4 -4 -10z"/>
<path d="M750 1300 c0 -14 6 -20 23 -19 18 1 18 2 4 6 -11 3 -16 11 -13 19 3
8 1 14 -4 14 -6 0 -10 -9 -10 -20z"/>
<path d="M814 1285 c-7 -17 3 -35 19 -34 9 0 9 2 0 6 -7 2 -13 12 -13 20 0 10
6 13 16 9 8 -3 12 -2 9 4 -9 15 -25 12 -31 -5z"/>
<path d="M910 1280 c0 -11 2 -20 4 -20 2 0 6 9 9 20 3 11 1 20 -4 20 -5 0 -9
-9 -9 -20z"/>
<path d="M950 1268 c0 -17 3 -28 7 -25 9 10 10 57 1 57 -4 0 -8 -14 -8 -32z"/>
<path d="M1034 1285 c3 -21 16 -31 16 -12 0 9 -4 18 -9 21 -5 4 -8 -1 -7 -9z"/>
<path d="M1068 1278 c-4 -22 -1 -27 19 -31 13 -2 22 0 21 5 -2 5 -8 9 -13 8
-6 -1 -13 9 -16 22 -5 23 -5 22 -11 -4z"/>
<path d="M757 1259 c7 -7 15 -10 18 -7 3 3 -2 9 -12 12 -14 6 -15 5 -6 -5z"/>
<path d="M744 1196 c-10 -26 1 -51 24 -54 17 -3 22 2 22 17 0 14 -6 21 -20 21
-13 0 -18 5 -14 15 4 8 3 15 0 15 -4 0 -9 -6 -12 -14z m36 -36 c0 -5 -4 -10
-9 -10 -6 0 -13 5 -16 10 -3 6 1 10 9 10 9 0 16 -4 16 -10z"/>
<path d="M1042 1195 c-7 -9 -8 -15 -2 -15 14 0 13 -27 -2 -33 -8 -3 -6 -6 5
-6 13 -1 17 7 17 34 0 39 0 40 -18 20z"/>
<path d="M806 1174 c-7 -19 1 -34 17 -33 9 0 9 2 0 5 -7 3 -9 12 -6 20 3 7 9
11 14 8 5 -3 9 0 9 5 0 17 -27 13 -34 -5z"/>
<path d="M881 1163 c2 -24 2 -25 6 -5 2 12 9 22 15 22 6 0 8 -9 5 -20 -3 -11
-1 -23 4 -26 5 -3 9 9 9 25 0 24 -4 31 -20 31 -15 0 -20 -6 -19 -27z"/>
<path d="M930 1165 c0 -14 2 -25 4 -25 2 0 6 11 8 25 3 14 1 25 -3 25 -5 0 -9
-11 -9 -25z"/>
<path d="M988 1164 c3 -17 7 -22 12 -13 9 13 2 39 -10 39 -4 0 -5 -12 -2 -26z"/>
<path d="M1073 1174 c-3 -8 -1 -20 5 -26 8 -8 9 -4 5 12 -5 19 -3 22 11 17 10
-4 15 -3 11 3 -9 15 -25 12 -32 -6z"/>
<path d="M971 1154 c0 -11 3 -14 6 -6 3 7 2 16 -1 19 -3 4 -6 -2 -5 -13z"/>
<path d="M2390 1022 c0 -4 9 -15 20 -25 11 -9 20 -13 20 -9 0 4 -9 15 -20 25
-11 9 -20 13 -20 9z"/>
<path d="M2344 998 l-19 -23 23 19 c21 18 27 26 19 26 -2 0 -12 -10 -23 -22z"/>
<path d="M2544 1009 c-9 -15 -2 -18 20 -9 17 6 18 7 3 13 -9 3 -19 2 -23 -4z"/>
<path d="M2590 1000 c0 -11 2 -20 4 -20 2 0 6 9 9 20 3 11 1 20 -4 20 -5 0 -9
-9 -9 -20z"/>
<path d="M2652 1000 c0 -14 2 -19 5 -12 2 6 2 18 0 25 -3 6 -5 1 -5 -13z"/>
<path d="M2682 1000 c0 -14 2 -19 5 -12 2 6 2 18 0 25 -3 6 -5 1 -5 -13z"/>
<path d="M2440 1000 c0 -5 5 -10 10 -10 6 0 10 5 10 10 0 6 -4 10 -10 10 -5 0
-10 -4 -10 -10z"/>
<path d="M1803 963 c9 -2 25 -2 35 0 9 3 1 5 -18 5 -19 0 -27 -2 -17 -5z"/>
<path d="M1888 963 c7 -3 16 -2 19 1 4 3 -2 6 -13 5 -11 0 -14 -3 -6 -6z"/>
<path d="M2469 843 c-13 -16 -12 -17 4 -4 9 7 17 15 17 17 0 8 -8 3 -21 -13z"/>
<path d="M4810 811 c0 -32 3 -39 18 -36 9 2 20 4 25 4 4 1 7 17 7 36 0 31 -3
35 -25 35 -22 0 -25 -4 -25 -39z m35 19 c-3 -5 -10 -10 -16 -10 -5 0 -9 5 -9
10 0 6 7 10 16 10 8 0 12 -4 9 -10z m3 -31 c-2 -6 -8 -10 -13 -10 -5 0 -11 4
-13 10 -2 6 4 11 13 11 9 0 15 -5 13 -11z"/>
<path d="M5220 810 c0 -39 15 -39 16 0 1 17 -3 30 -7 30 -5 0 -9 -13 -9 -30z"/>
<path d="M4880 807 c0 -14 5 -29 10 -32 7 -4 8 3 4 22 -9 38 -14 42 -14 10z"/>
<path d="M4943 814 c-3 -8 -1 -20 5 -26 8 -8 9 -5 6 10 -4 14 0 22 13 25 17 4
17 5 0 6 -10 0 -20 -6 -24 -15z"/>
<path d="M5000 805 c0 -14 4 -25 9 -25 4 0 6 11 3 25 -2 14 -6 25 -8 25 -2 0
-4 -11 -4 -25z"/>
<path d="M5038 805 c-3 -14 -1 -25 3 -25 5 0 9 11 9 25 0 14 -2 25 -4 25 -2 0
-6 -11 -8 -25z"/>
<path d="M5060 805 c0 -14 4 -25 9 -25 5 0 11 11 13 25 4 17 1 25 -8 25 -8 0
-14 -11 -14 -25z"/>
<path d="M5103 814 c-3 -8 2 -23 11 -32 15 -15 16 -15 11 -1 -4 10 0 19 10 23
9 3 13 10 10 16 -9 15 -35 12 -42 -6z"/>
<path d="M5160 821 c0 -6 5 -13 12 -17 6 -4 8 -3 4 4 -3 6 2 13 11 15 14 4 13
5 -4 6 -13 0 -23 -3 -23 -8z"/>
<path d="M5262 805 c0 -16 2 -22 5 -12 2 9 2 23 0 30 -3 6 -5 -1 -5 -18z"/>
<path d="M4910 790 c0 -5 5 -10 10 -10 6 0 10 5 10 10 0 6 -4 10 -10 10 -5 0
-10 -4 -10 -10z"/>
<path d="M5190 791 c0 -8 -6 -11 -16 -7 -14 6 -15 4 -4 -9 12 -15 14 -15 23 0
5 9 6 19 3 22 -3 4 -6 1 -6 -6z"/>
<path d="M5017 743 c-12 -12 -7 -41 7 -46 19 -7 40 18 32 38 -6 15 -28 20 -39
8z m31 -20 c-4 -22 -22 -20 -26 1 -2 10 3 16 13 16 10 0 15 -7 13 -17z"/>
<path d="M3336 712 c-2 -4 -1 -14 5 -22 7 -12 9 -10 9 8 0 23 -5 28 -14 14z"/>
<path d="M3421 704 c0 -11 3 -14 6 -6 3 7 2 16 -1 19 -3 4 -6 -2 -5 -13z"/>
<path d="M3514 709 c-3 -6 -1 -16 5 -22 8 -8 11 -5 11 11 0 24 -5 28 -16 11z"/>
<path d="M3450 689 c0 -5 5 -7 10 -4 6 3 10 8 10 11 0 2 -4 4 -10 4 -5 0 -10
-5 -10 -11z"/>
<path d="M7 583 c7 -2 19 -2 26 0 6 3 1 5 -13 5 -14 0 -19 -2 -13 -5z"/>
<path d="M6887 563 c-2 -5 -1 -19 4 -33 7 -23 7 -23 8 8 1 31 -3 40 -12 25z"/>
<path d="M7020 547 c0 -14 4 -28 8 -31 9 -5 8 41 -1 51 -4 3 -7 -5 -7 -20z"/>
<path d="M6781 533 c2 -24 2 -25 6 -5 2 12 8 22 13 22 5 0 11 -10 13 -22 4
-20 4 -19 6 5 1 21 -4 27 -19 27 -15 0 -20 -6 -19 -27z"/>
<path d="M6840 549 c0 -5 5 -7 10 -4 6 3 10 8 10 11 0 2 -4 4 -10 4 -5 0 -10
-5 -10 -11z"/>
<path d="M6929 551 c7 -5 9 -10 3 -12 -6 -2 -4 -9 4 -17 12 -11 14 -9 14 13 0
17 -5 25 -17 25 -14 0 -15 -2 -4 -9z"/>
<path d="M6971 543 c0 -10 3 -13 6 -5 8 19 21 14 26 -10 5 -20 5 -20 4 2 -2
29 -37 42 -36 13z"/>
<path d="M7066 552 c7 -4 14 -16 17 -27 4 -15 5 -14 6 8 1 20 -4 27 -16 27
-12 0 -14 -3 -7 -8z"/>
<path d="M947 519 c-12 -7 -17 -22 -17 -49 0 -34 4 -41 24 -46 26 -6 46 1 46
17 0 5 -11 7 -25 3 -23 -6 -25 -4 -25 30 0 37 15 47 38 24 9 -9 12 -9 12 0 0
18 -33 32 -53 21z"/>
<path d="M1152 519 c-19 -7 -23 -15 -20 -45 4 -46 30 -66 54 -42 20 20 11 51
-19 66 l-22 11 23 0 c12 1 22 6 22 11 0 12 -7 12 -38 -1z m28 -59 c0 -11 -7
-20 -15 -20 -8 0 -15 9 -15 20 0 11 7 20 15 20 8 0 15 -9 15 -20z"/>
<path d="M2551 478 c1 -19 3 -25 6 -15 3 11 11 16 19 13 9 -3 14 1 14 14 0 13
-7 20 -20 20 -16 0 -20 -6 -19 -32z"/>
<path d="M1055 491 c-18 -5 -19 -12 -14 -56 3 -27 7 -42 7 -33 1 9 12 18 25
20 17 2 23 11 25 34 3 34 -10 44 -43 35z m25 -31 c0 -11 -7 -20 -15 -20 -8 0
-15 9 -15 20 0 11 7 20 15 20 8 0 15 -9 15 -20z"/>
<path d="M1227 485 c-5 -17 -5 -31 3 -65 0 -3 10 6 20 19 20 23 20 23 20 2 0
-12 5 -21 10 -21 13 0 13 67 0 75 -6 3 -13 -1 -16 -9 -8 -21 -22 -20 -26 2 -4
15 -5 15 -11 -3z"/>
<path d="M1328 490 c-11 -27 -16 -100 -7 -100 5 0 12 6 15 14 8 20 0 104 -8
86z"/>
<path d="M1385 490 c-3 -5 2 -10 12 -11 15 0 14 -2 -5 -11 -32 -16 -24 -43 13
-43 23 1 31 6 33 23 6 38 -36 70 -53 42z m25 -40 c0 -5 -5 -10 -11 -10 -5 0
-7 5 -4 10 3 6 8 10 11 10 2 0 4 -4 4 -10z"/>
<path d="M2610 469 c0 -11 4 -18 10 -14 5 3 7 12 3 20 -7 21 -13 19 -13 -6z"/>
<path d="M2630 483 c0 -5 5 -15 10 -23 8 -12 10 -11 10 8 0 12 -4 22 -10 22
-5 0 -10 -3 -10 -7z"/>
<path d="M2667 466 c-5 -15 -6 -31 -3 -34 8 -8 18 25 14 45 -3 13 -6 10 -11
-11z"/>
<path d="M2720 469 c0 -11 4 -18 10 -14 5 3 7 12 3 20 -7 21 -13 19 -13 -6z"/>
<path d="M2745 481 c-3 -5 -1 -12 5 -16 5 -3 10 1 10 9 0 18 -6 21 -15 7z"/>
<path d="M2781 464 c0 -11 3 -14 6 -6 3 7 2 16 -1 19 -3 4 -6 -2 -5 -13z"/>
<path d="M2806 465 c4 -8 8 -15 10 -15 2 0 4 7 4 15 0 8 -4 15 -10 15 -5 0 -7
-7 -4 -15z"/>
<path d="M2695 450 c3 -5 8 -10 11 -10 2 0 4 5 4 10 0 6 -5 10 -11 10 -5 0 -7
-4 -4 -10z"/>
<path d="M198 433 c7 -3 16 -2 19 1 4 3 -2 6 -13 5 -11 0 -14 -3 -6 -6z"/>
<path d="M5643 433 c9 -2 23 -2 30 0 6 3 -1 5 -18 5 -16 0 -22 -2 -12 -5z"/>
<path d="M2703 375 c0 -22 2 -30 4 -17 2 12 2 30 0 40 -3 9 -5 -1 -4 -23z"/>
<path d="M2752 360 c0 -14 2 -19 5 -12 2 6 2 18 0 25 -3 6 -5 1 -5 -13z"/>
<path d="M2782 360 c0 -14 2 -19 5 -12 2 6 2 18 0 25 -3 6 -5 1 -5 -13z"/>
<path d="M964 355 c-19 -15 -18 -16 9 -38 34 -29 35 -41 0 -32 -24 6 -25 4
-13 -10 19 -23 54 -15 58 12 2 16 -4 26 -22 35 -33 15 -34 32 -1 24 27 -7 35
8 9 18 -20 8 -17 8 -40 -9z"/>
<path d="M1212 318 c3 -48 5 -53 27 -53 31 0 50 29 35 52 -7 10 -19 17 -28 17
-10 -1 -16 6 -16 17 0 11 -5 19 -11 19 -6 0 -9 -20 -7 -52z m48 -18 c0 -11 -7
-20 -15 -20 -8 0 -15 9 -15 20 0 11 7 20 15 20 8 0 15 -9 15 -20z"/>
<path d="M2671 354 c0 -11 3 -14 6 -6 3 7 2 16 -1 19 -3 4 -6 -2 -5 -13z"/>
<path d="M2600 350 c0 -5 5 -10 10 -10 6 0 10 5 10 10 0 6 -4 10 -10 10 -5 0
-10 -4 -10 -10z"/>
<path d="M321 334 c0 -11 3 -14 6 -6 3 7 2 16 -1 19 -3 4 -6 -2 -5 -13z"/>
<path d="M4842 320 c0 -19 2 -27 5 -17 2 9 2 25 0 35 -3 9 -5 1 -5 -18z"/>
<path d="M1060 320 c-14 -26 3 -60 30 -60 25 0 26 17 3 23 -15 4 -15 6 5 12
25 8 27 16 10 33 -18 18 -36 15 -48 -8z"/>
<path d="M1150 299 c0 -24 4 -38 10 -34 6 3 10 17 10 31 0 13 5 24 11 24 5 0
7 5 4 10 -3 6 -13 10 -21 10 -10 0 -14 -12 -14 -41z"/>
<path d="M1310 300 c0 -25 4 -39 10 -35 6 3 10 19 10 35 0 16 -4 32 -10 35 -6
4 -10 -10 -10 -35z"/>
<path d="M1365 331 c-3 -7 3 -11 17 -12 l23 0 -23 -10 c-33 -13 -25 -43 11
-46 27 -2 28 0 25 35 -2 29 -8 38 -25 40 -11 2 -24 -2 -28 -7z m35 -41 c0 -5
-5 -10 -11 -10 -5 0 -7 5 -4 10 3 6 8 10 11 10 2 0 4 -4 4 -10z"/>
<path d="M5004 326 c-3 -8 -4 -21 -1 -28 3 -7 6 -2 6 12 1 20 3 22 11 10 6 -9
10 -10 10 -3 0 19 -20 26 -26 9z"/>
<path d="M4901 325 c0 -5 4 -18 8 -28 6 -17 8 -16 20 9 10 24 10 26 -2 15 -12
-9 -16 -9 -20 1 -3 7 -5 9 -6 3z"/>
<path d="M4842 210 c0 -19 2 -27 5 -17 2 9 2 25 0 35 -3 9 -5 1 -5 -18z"/>
<path d="M5006 214 c-4 -9 -4 -19 -1 -22 2 -3 7 3 11 12 4 9 4 19 1 22 -2 3
-7 -3 -11 -12z"/>
<path d="M4902 200 c0 -14 2 -19 5 -12 2 6 2 18 0 25 -3 6 -5 1 -5 -13z"/>
<path d="M4932 200 c0 -14 2 -19 5 -12 2 6 2 18 0 25 -3 6 -5 1 -5 -13z"/>
<path d="M4970 185 c-11 -13 -10 -14 4 -9 9 3 16 10 16 15 0 13 -6 11 -20 -6z"/>
<path d="M4916 141 c-10 -10 -14 -21 -9 -24 5 -3 13 6 20 19 13 29 11 30 -11
5z"/>
<path d="M3023 143 c9 -2 25 -2 35 0 9 3 1 5 -18 5 -19 0 -27 -2 -17 -5z"/>
<path d="M767 120 c-3 -11 -1 -23 4 -26 5 -3 9 6 9 20 0 31 -6 34 -13 6z"/>
<path d="M822 100 c0 -14 2 -19 5 -12 2 6 2 18 0 25 -3 6 -5 1 -5 -13z"/>
<path d="M925 111 c-3 -5 -1 -12 5 -16 5 -3 10 1 10 9 0 18 -6 21 -15 7z"/>
<path d="M950 97 c0 -11 1 -18 3 -16 1 2 8 11 15 20 9 13 9 16 -3 16 -8 0 -15
-9 -15 -20z"/>
<path d="M3298 93 c7 -3 16 -2 19 1 4 3 -2 6 -13 5 -11 0 -14 -3 -6 -6z"/>
<path d="M1350 55 c0 -16 3 -24 8 -19 4 5 11 11 15 15 4 3 1 12 -8 19 -13 11
-15 9 -15 -15z"/>
<path d="M3900 66 c0 -8 4 -17 9 -20 5 -4 7 3 4 14 -6 23 -13 26 -13 6z"/>
<path d="M4190 67 c0 -8 6 -20 14 -26 12 -10 13 -8 9 9 -7 25 -23 37 -23 17z"/>
<path d="M1410 39 c0 -16 4 -28 9 -25 8 5 3 56 -5 56 -2 0 -4 -14 -4 -31z"/>
<path d="M1442 50 c0 -14 2 -19 5 -12 2 6 2 18 0 25 -3 6 -5 1 -5 -13z"/>
<path d="M1482 54 c-7 -8 -10 -19 -6 -26 5 -7 10 -3 16 12 10 28 7 33 -10 14z"/>
<path d="M1514 45 c1 -11 9 -21 19 -23 13 -3 17 3 16 25 -1 23 -2 24 -6 6 -5
-27 -20 -30 -26 -5 -3 13 -4 12 -3 -3z"/>
<path d="M1593 55 c-3 -9 -3 -19 1 -22 3 -4 6 1 6 10 0 11 5 14 17 10 11 -4
14 -3 9 5 -10 17 -26 15 -33 -3z"/>
<path d="M1640 51 c0 -11 4 -22 8 -25 4 -2 8 6 8 20 0 13 -4 24 -8 24 -4 0 -8
-9 -8 -19z"/>
<path d="M1672 50 c0 -14 2 -19 5 -12 2 6 2 18 0 25 -3 6 -5 1 -5 -13z"/>
<path d="M1722 50 c0 -14 2 -19 5 -12 2 6 2 18 0 25 -3 6 -5 1 -5 -13z"/>
<path d="M1782 35 c0 -17 2 -22 5 -12 2 9 2 23 0 30 -3 6 -5 -1 -5 -18z"/>
<path d="M3478 33 c7 -3 16 -2 19 1 4 3 -2 6 -13 5 -11 0 -14 -3 -6 -6z"/>
</g>
</svg>
